<svg width="20" height="20" viewBox="0 0 20 20" fill="none" xmlns="http://www.w3.org/2000/svg">
<g id="Logout">
<path id="Fill 1" opacity="0.4" d="M0 4.447C0 1.996 2.03024 0 4.52453 0H9.48564C11.9748 0 14 1.99 14 4.437V15.553C14 18.005 11.9698 20 9.47445 20H4.51537C2.02515 20 0 18.01 0 15.563V14.623V4.447Z" fill="#FFFFFF"/>
<path id="Fill 3" d="M19.7787 9.45504L16.9329 6.54604C16.6388 6.24604 16.1655 6.24604 15.8723 6.54804C15.5802 6.85004 15.5811 7.33704 15.8743 7.63704L17.4335 9.23004H15.9386H7.54826C7.13434 9.23004 6.79834 9.57504 6.79834 10C6.79834 10.426 7.13434 10.77 7.54826 10.77H17.4335L15.8743 12.363C15.5811 12.663 15.5802 13.15 15.8723 13.452C16.0194 13.603 16.2113 13.679 16.4041 13.679C16.595 13.679 16.7868 13.603 16.9329 13.454L19.7787 10.546C19.9199 10.401 19.9998 10.205 19.9998 10C19.9998 9.79604 19.9199 9.60004 19.7787 9.45504Z" fill="#FFFFFF"/>
</g>
</svg>
