<svg width="20" height="20" viewBox="0 0 20 20" fill="none" xmlns="http://www.w3.org/2000/svg">
<g id="Vector">
<path id="Vector_2" d="M2 19.5C1.45 19.5 0.979333 19.3043 0.588 18.913C0.196667 18.5217 0.000666667 18.0507 0 17.5V6.5C0 5.95 0.196 5.47933 0.588 5.088C0.98 4.69667 1.45067 4.50067 2 4.5H6V2.5C6 1.95 6.196 1.47933 6.588 1.088C6.98 0.696667 7.45067 0.500667 8 0.5H12C12.55 0.5 13.021 0.696 13.413 1.088C13.805 1.48 14.0007 1.95067 14 2.5V4.5H18C18.55 4.5 19.021 4.696 19.413 5.088C19.805 5.48 20.0007 5.95067 20 6.5V17.5C20 18.05 19.8043 18.521 19.413 18.913C19.0217 19.305 18.5507 19.5007 18 19.5H2ZM8 4.5H12V2.5H8V4.5ZM18 13.5H13V15.5H7V13.5H2V17.5H18V13.5ZM9 13.5H11V11.5H9V13.5ZM2 11.5H7V9.5H13V11.5H18V6.5H2V11.5Z" fill="#FFFFFF"/>
</g>
</svg>
