<svg width="20" height="20" viewBox="0 0 20 20" fill="none" xmlns="http://www.w3.org/2000/svg">
<g id="Group 12353">
<path id="Vector" d="M11.25 7.30859C11.25 7.10968 11.171 6.91892 11.0303 6.77826C10.8897 6.63761 10.6989 6.55859 10.5 6.55859H4.5C4.30109 6.55859 4.11032 6.63761 3.96967 6.77826C3.82902 6.91892 3.75 7.10968 3.75 7.30859C3.75 7.50751 3.82902 7.69827 3.96967 7.83892C4.11032 7.97958 4.30109 8.05859 4.5 8.05859H10.5C10.6989 8.05859 10.8897 7.97958 11.0303 7.83892C11.171 7.69827 11.25 7.50751 11.25 7.30859ZM10.25 10.3086C10.25 10.1097 10.171 9.91892 10.0303 9.77826C9.88968 9.63761 9.69891 9.55859 9.5 9.55859H4.5C4.30109 9.55859 4.11032 9.63761 3.96967 9.77826C3.82902 9.91892 3.75 10.1097 3.75 10.3086C3.75 10.5075 3.82902 10.6983 3.96967 10.8389C4.11032 10.9796 4.30109 11.0586 4.5 11.0586H9.5C9.69891 11.0586 9.88968 10.9796 10.0303 10.8389C10.171 10.6983 10.25 10.5075 10.25 10.3086ZM10.5 12.5586C10.6989 12.5586 10.8897 12.6376 11.0303 12.7783C11.171 12.9189 11.25 13.1097 11.25 13.3086C11.25 13.5075 11.171 13.6983 11.0303 13.8389C10.8897 13.9796 10.6989 14.0586 10.5 14.0586H4.5C4.30109 14.0586 4.11032 13.9796 3.96967 13.8389C3.82902 13.6983 3.75 13.5075 3.75 13.3086C3.75 13.1097 3.82902 12.9189 3.96967 12.7783C4.11032 12.6376 4.30109 12.5586 4.5 12.5586H10.5Z" fill="#53545C"/>
<path id="Vector_2" fill-rule="evenodd" clip-rule="evenodd" d="M3.75 19.3085H16.75C17.4793 19.3085 18.1788 19.0187 18.6945 18.503C19.2103 17.9873 19.5 17.2878 19.5 16.5585V11.0585C19.5 10.8596 19.421 10.6688 19.2803 10.5281C19.1397 10.3875 18.9489 10.3085 18.75 10.3085H15.5V2.50147C15.5 1.07847 13.891 0.250469 12.733 1.07747L12.558 1.20247C12.1748 1.4745 11.7163 1.6203 11.2464 1.61958C10.7764 1.61886 10.3184 1.47166 9.936 1.19847C9.29762 0.744137 8.53355 0.5 7.75 0.5C6.96645 0.5 6.20238 0.744137 5.564 1.19847C5.18162 1.47166 4.72359 1.61886 4.25364 1.61958C3.78369 1.6203 3.32521 1.4745 2.942 1.20247L2.767 1.07747C1.609 0.250469 0 1.07747 0 2.50147V15.5585C0 16.553 0.395088 17.5069 1.09835 18.2101C1.80161 18.9134 2.75544 19.3085 3.75 19.3085ZM6.436 2.41847C6.81995 2.14591 7.27915 1.9995 7.75 1.9995C8.22085 1.9995 8.68005 2.14591 9.064 2.41847C9.7007 2.87359 10.4636 3.11868 11.2462 3.11958C12.0288 3.12048 12.7923 2.87713 13.43 2.42347L13.605 2.29847C13.6423 2.27188 13.6863 2.25607 13.732 2.25277C13.7777 2.24947 13.8235 2.25881 13.8643 2.27977C13.9051 2.30072 13.9393 2.33249 13.9632 2.37159C13.9872 2.41069 13.9999 2.45562 14 2.50147V16.5585C14 17.0085 14.108 17.4335 14.3 17.8085H3.75C3.15326 17.8085 2.58097 17.5714 2.15901 17.1495C1.73705 16.7275 1.5 16.1552 1.5 15.5585V2.50147C1.50012 2.45562 1.51284 2.41069 1.53678 2.37159C1.56072 2.33249 1.59495 2.30072 1.63573 2.27977C1.6765 2.25881 1.72226 2.24947 1.76798 2.25277C1.81371 2.25607 1.85765 2.27188 1.895 2.29847L2.07 2.42347C2.70775 2.87713 3.47116 3.12048 4.2538 3.11958C5.03644 3.11868 5.79929 2.87359 6.436 2.41847ZM15.5 16.5585V11.8085H18V16.5585C18 16.89 17.8683 17.2079 17.6339 17.4424C17.3995 17.6768 17.0815 17.8085 16.75 17.8085C16.4185 17.8085 16.1005 17.6768 15.8661 17.4424C15.6317 17.2079 15.5 16.89 15.5 16.5585Z" fill="#53545C"/>
</g>
</svg>
