<svg width="20" height="23" viewBox="0 0 20 23" fill="none" xmlns="http://www.w3.org/2000/svg">
<path id="Vector" d="M17.8571 7.64193H12.8571V2.50859C12.8571 1.92512 12.6314 1.36554 12.2295 0.952959C11.8277 0.540379 11.2826 0.308594 10.7143 0.308594H2.14286C1.57454 0.308594 1.02949 0.540379 0.627628 0.952959C0.225765 1.36554 0 1.92512 0 2.50859V21.5753C0 21.7698 0.0752549 21.9563 0.209209 22.0938C0.343164 22.2313 0.524845 22.3086 0.714286 22.3086H5.35714C5.45186 22.3086 5.5427 22.27 5.60968 22.2012C5.67666 22.1324 5.71429 22.0392 5.71429 21.9419V18.6626C5.71429 18.2679 6.00982 17.9292 6.3942 17.9095C6.49077 17.9047 6.58729 17.9201 6.6779 17.9548C6.76851 17.9894 6.85132 18.0426 6.92132 18.1111C6.99132 18.1796 7.04705 18.2619 7.08513 18.3532C7.12321 18.4444 7.14285 18.5427 7.14286 18.6419V21.9419C7.14286 22.0392 7.18048 22.1324 7.24746 22.2012C7.31444 22.27 7.40528 22.3086 7.5 22.3086H19.2857C19.4752 22.3086 19.6568 22.2313 19.7908 22.0938C19.9247 21.9563 20 21.7698 20 21.5753V9.84193C20 9.25845 19.7742 8.69887 19.3724 8.28629C18.9705 7.87371 18.4255 7.64193 17.8571 7.64193ZM2.95 19.3693C2.80207 19.3892 2.65179 19.361 2.52026 19.2887C2.38872 19.2164 2.28254 19.1036 2.21661 18.9662C2.15068 18.8288 2.12832 18.6737 2.15265 18.5226C2.17698 18.3714 2.2468 18.2319 2.35229 18.1236C2.45779 18.0153 2.59367 17.9436 2.74087 17.9186C2.88806 17.8937 3.03918 17.9166 3.17302 17.9843C3.30685 18.052 3.41669 18.161 3.4871 18.2961C3.55751 18.4311 3.58497 18.5854 3.56563 18.7373C3.54521 18.8975 3.47378 19.0464 3.36245 19.1607C3.25112 19.275 3.10612 19.3483 2.95 19.3693ZM2.95 15.7026C2.80207 15.7225 2.65179 15.6943 2.52026 15.622C2.38872 15.5497 2.28254 15.437 2.21661 15.2996C2.15068 15.1622 2.12832 15.007 2.15265 14.8559C2.17698 14.7048 2.2468 14.5653 2.35229 14.4569C2.45779 14.3486 2.59367 14.277 2.74087 14.252C2.88806 14.227 3.03918 14.25 3.17302 14.3176C3.30685 14.3853 3.41669 14.4944 3.4871 14.6294C3.55751 14.7644 3.58497 14.9187 3.56563 15.0706C3.54521 15.2309 3.47378 15.3797 3.36245 15.494C3.25112 15.6083 3.10612 15.6817 2.95 15.7026ZM2.95 12.036C2.80207 12.0558 2.65179 12.0276 2.52026 11.9553C2.38872 11.8831 2.28254 11.7703 2.21661 11.6329C2.15068 11.4955 2.12832 11.3403 2.15265 11.1892C2.17698 11.0381 2.2468 10.8986 2.35229 10.7903C2.45779 10.682 2.59367 10.6103 2.74087 10.5853C2.88806 10.5603 3.03918 10.5833 3.17302 10.651C3.30685 10.7187 3.41669 10.8277 3.4871 10.9627C3.55751 11.0978 3.58497 11.252 3.56563 11.4039C3.54521 11.5642 3.47378 11.7131 3.36245 11.8274C3.25112 11.9417 3.10612 12.015 2.95 12.036ZM2.95 8.3693C2.80207 8.38916 2.65179 8.36097 2.52026 8.28868C2.38872 8.21639 2.28254 8.10363 2.21661 7.96623C2.15068 7.82882 2.12832 7.67367 2.15265 7.52255C2.17698 7.37143 2.2468 7.23193 2.35229 7.12362C2.45779 7.01531 2.59367 6.94363 2.74087 6.91865C2.88806 6.89366 3.03918 6.91663 3.17302 6.98432C3.30685 7.052 3.41669 7.16102 3.4871 7.29606C3.55751 7.4311 3.58497 7.58538 3.56563 7.73726C3.54521 7.89754 3.47378 8.0464 3.36245 8.16071C3.25112 8.27501 3.10612 8.34834 2.95 8.3693ZM2.95 4.70264C2.80207 4.7225 2.65179 4.69431 2.52026 4.62202C2.38872 4.54972 2.28254 4.43696 2.21661 4.29956C2.15068 4.16215 2.12832 4.007 2.15265 3.85588C2.17698 3.70476 2.2468 3.56526 2.35229 3.45695C2.45779 3.34864 2.59367 3.27696 2.74087 3.25198C2.88806 3.227 3.03918 3.24996 3.17302 3.31765C3.30685 3.38534 3.41669 3.49435 3.4871 3.62939C3.55751 3.76443 3.58497 3.91872 3.56563 4.07059C3.54521 4.23087 3.47378 4.37974 3.36245 4.49404C3.25112 4.60834 3.10612 4.68167 2.95 4.70264ZM6.52143 15.7026C6.3735 15.7225 6.22322 15.6943 6.09168 15.622C5.96015 15.5497 5.85397 15.437 5.78804 15.2996C5.72211 15.1622 5.69974 15.007 5.72408 14.8559C5.74841 14.7048 5.81823 14.5653 5.92372 14.4569C6.02922 14.3486 6.1651 14.277 6.3123 14.252C6.45949 14.227 6.61061 14.25 6.74445 14.3176C6.87828 14.3853 6.98811 14.4944 7.05853 14.6294C7.12894 14.7644 7.1564 14.9187 7.13705 15.0706C7.11664 15.2309 7.04521 15.3797 6.93388 15.494C6.82254 15.6083 6.67755 15.6817 6.52143 15.7026ZM6.52143 12.036C6.3735 12.0558 6.22322 12.0276 6.09168 11.9553C5.96015 11.8831 5.85397 11.7703 5.78804 11.6329C5.72211 11.4955 5.69974 11.3403 5.72408 11.1892C5.74841 11.0381 5.81823 10.8986 5.92372 10.7903C6.02922 10.682 6.1651 10.6103 6.3123 10.5853C6.45949 10.5603 6.61061 10.5833 6.74445 10.651C6.87828 10.7187 6.98811 10.8277 7.05853 10.9627C7.12894 11.0978 7.1564 11.252 7.13705 11.4039C7.11664 11.5642 7.04521 11.7131 6.93388 11.8274C6.82254 11.9417 6.67755 12.015 6.52143 12.036ZM6.52143 8.3693C6.3735 8.38916 6.22322 8.36097 6.09168 8.28868C5.96015 8.21639 5.85397 8.10363 5.78804 7.96623C5.72211 7.82882 5.69974 7.67367 5.72408 7.52255C5.74841 7.37143 5.81823 7.23193 5.92372 7.12362C6.02922 7.01531 6.1651 6.94363 6.3123 6.91865C6.45949 6.89366 6.61061 6.91663 6.74445 6.98432C6.87828 7.052 6.98811 7.16102 7.05853 7.29606C7.12894 7.4311 7.1564 7.58538 7.13705 7.73726C7.11664 7.89754 7.04521 8.0464 6.93388 8.16071C6.82254 8.27501 6.67755 8.34834 6.52143 8.3693ZM6.52143 4.70264C6.3735 4.7225 6.22322 4.69431 6.09168 4.62202C5.96015 4.54972 5.85397 4.43696 5.78804 4.29956C5.72211 4.16215 5.69974 4.007 5.72408 3.85588C5.74841 3.70476 5.81823 3.56526 5.92372 3.45695C6.02922 3.34864 6.1651 3.27696 6.3123 3.25198C6.45949 3.227 6.61061 3.24996 6.74445 3.31765C6.87828 3.38534 6.98811 3.49435 7.05853 3.62939C7.12894 3.76443 7.1564 3.91872 7.13705 4.07059C7.11664 4.23087 7.04521 4.37974 6.93388 4.49404C6.82254 4.60834 6.67755 4.68167 6.52143 4.70264ZM10.0929 19.3693C9.94492 19.3892 9.79464 19.361 9.66311 19.2887C9.53158 19.2164 9.4254 19.1036 9.35947 18.9662C9.29354 18.8288 9.27117 18.6737 9.29551 18.5226C9.31984 18.3714 9.38966 18.2319 9.49515 18.1236C9.60065 18.0153 9.73653 17.9436 9.88372 17.9186C10.0309 17.8937 10.182 17.9166 10.3159 17.9843C10.4497 18.052 10.5595 18.161 10.63 18.2961C10.7004 18.4311 10.7278 18.5854 10.7085 18.7373C10.6881 18.8975 10.6166 19.0464 10.5053 19.1607C10.394 19.275 10.249 19.3483 10.0929 19.3693ZM10.0929 15.7026C9.94492 15.7225 9.79464 15.6943 9.66311 15.622C9.53158 15.5497 9.4254 15.437 9.35947 15.2996C9.29354 15.1622 9.27117 15.007 9.29551 14.8559C9.31984 14.7048 9.38966 14.5653 9.49515 14.4569C9.60065 14.3486 9.73653 14.277 9.88372 14.252C10.0309 14.227 10.182 14.25 10.3159 14.3176C10.4497 14.3853 10.5595 14.4944 10.63 14.6294C10.7004 14.7644 10.7278 14.9187 10.7085 15.0706C10.6881 15.2309 10.6166 15.3797 10.5053 15.494C10.394 15.6083 10.249 15.6817 10.0929 15.7026ZM10.0929 12.036C9.94492 12.0558 9.79464 12.0276 9.66311 11.9553C9.53158 11.8831 9.4254 11.7703 9.35947 11.6329C9.29354 11.4955 9.27117 11.3403 9.29551 11.1892C9.31984 11.0381 9.38966 10.8986 9.49515 10.7903C9.60065 10.682 9.73653 10.6103 9.88372 10.5853C10.0309 10.5603 10.182 10.5833 10.3159 10.651C10.4497 10.7187 10.5595 10.8277 10.63 10.9627C10.7004 11.0978 10.7278 11.252 10.7085 11.4039C10.6881 11.5642 10.6166 11.7131 10.5053 11.8274C10.394 11.9417 10.249 12.015 10.0929 12.036ZM10.0929 8.3693C9.94492 8.38916 9.79464 8.36097 9.66311 8.28868C9.53158 8.21639 9.4254 8.10363 9.35947 7.96623C9.29354 7.82882 9.27117 7.67367 9.29551 7.52255C9.31984 7.37143 9.38966 7.23193 9.49515 7.12362C9.60065 7.01531 9.73653 6.94363 9.88372 6.91865C10.0309 6.89366 10.182 6.91663 10.3159 6.98432C10.4497 7.052 10.5595 7.16102 10.63 7.29606C10.7004 7.4311 10.7278 7.58538 10.7085 7.73726C10.6881 7.89754 10.6166 8.0464 10.5053 8.16071C10.394 8.27501 10.249 8.34834 10.0929 8.3693ZM10.0929 4.70264C9.94492 4.7225 9.79464 4.69431 9.66311 4.62202C9.53158 4.54972 9.4254 4.43696 9.35947 4.29956C9.29354 4.16215 9.27117 4.007 9.29551 3.85588C9.31984 3.70476 9.38966 3.56526 9.49515 3.45695C9.60065 3.34864 9.73653 3.27696 9.88372 3.25198C10.0309 3.227 10.182 3.24996 10.3159 3.31765C10.4497 3.38534 10.5595 3.49435 10.63 3.62939C10.7004 3.76443 10.7278 3.91872 10.7085 4.07059C10.6881 4.23087 10.6166 4.37974 10.5053 4.49404C10.394 4.60834 10.249 4.68167 10.0929 4.70264ZM18.3929 20.8419H12.8571V9.10859H17.8571C18.0466 9.10859 18.2283 9.18586 18.3622 9.32338C18.4962 9.46091 18.5714 9.64743 18.5714 9.84193V20.6586C18.5714 20.7072 18.5526 20.7538 18.5191 20.7882C18.4856 20.8226 18.4402 20.8419 18.3929 20.8419Z" fill="#53545C"/>
</svg>
