<svg width="20" height="22" viewBox="0 0 20 22" fill="none" xmlns="http://www.w3.org/2000/svg">
<g id="Setting">
<path id="Path_33946" fill-rule="evenodd" clip-rule="evenodd" d="M18.8064 6.93245L18.184 5.85236C17.6574 4.93844 16.4905 4.62316 15.5753 5.14755V5.14755C15.1397 5.40418 14.6198 5.47699 14.1305 5.34992C13.6411 5.22286 13.2224 4.90636 12.9666 4.47021C12.8021 4.19299 12.7137 3.87723 12.7103 3.55488V3.55488C12.7251 3.03806 12.5302 2.53724 12.1698 2.16651C11.8094 1.79577 11.3143 1.5867 10.7973 1.58691H9.54326C9.03672 1.58691 8.55107 1.78875 8.19376 2.14778C7.83644 2.50681 7.63693 2.99343 7.63937 3.49996V3.49996C7.62435 4.54576 6.77224 5.38565 5.72632 5.38554C5.40397 5.38219 5.08821 5.29378 4.81099 5.12925V5.12925C3.89582 4.60485 2.72887 4.92013 2.20229 5.83405L1.5341 6.93245C1.00817 7.84523 1.31916 9.01144 2.22975 9.54115V9.54115C2.82166 9.88288 3.18629 10.5144 3.18629 11.1979C3.18629 11.8814 2.82166 12.5129 2.22975 12.8546V12.8546C1.32031 13.3808 1.00898 14.5442 1.5341 15.4542V15.4542L2.16568 16.5434C2.4124 16.9886 2.82636 17.3171 3.31595 17.4563C3.80554 17.5954 4.3304 17.5337 4.77438 17.2849V17.2849C5.21084 17.0302 5.73094 16.9604 6.2191 17.091C6.70725 17.2217 7.12299 17.5419 7.37392 17.9805C7.53845 18.2577 7.62686 18.5735 7.63021 18.8958V18.8958C7.63021 19.9524 8.48671 20.8089 9.54326 20.8089H10.7973C11.8502 20.8089 12.7053 19.958 12.7103 18.905V18.905C12.7079 18.3969 12.9086 17.9089 13.2679 17.5496C13.6272 17.1903 14.1152 16.9895 14.6233 16.9919C14.9449 17.0006 15.2594 17.0886 15.5387 17.2482V17.2482C16.4515 17.7742 17.6177 17.4632 18.1474 16.5526V16.5526L18.8064 15.4542C19.0615 15.0163 19.1315 14.4948 19.001 14.0052C18.8704 13.5156 18.55 13.0982 18.1108 12.8455V12.8455C17.6715 12.5928 17.3511 12.1754 17.2206 11.6858C17.09 11.1961 17.16 10.6747 17.4151 10.2368C17.581 9.94717 17.8211 9.70704 18.1108 9.54115V9.54115C19.0159 9.01173 19.3262 7.85233 18.8064 6.94161V6.94161V6.93245Z" stroke="#53545C" stroke-width="1.5" stroke-linecap="round" stroke-linejoin="round"/>
<circle id="Ellipse_737" cx="10.1747" cy="11.1977" r="2.63616" stroke="#53545C" stroke-width="1.5" stroke-linecap="round" stroke-linejoin="round"/>
</g>
</svg>
